<svg xmlns="http://www.w3.org/2000/svg" viewBox="0 0 512 512" style="height: 512px; width: 512px;"><defs><radialGradient id="delapouite-dice-six-faces-two-gradient-0"><stop offset="0%" stop-color="#000000" stop-opacity="1"></stop><stop offset="100%" stop-color="#d0021b" stop-opacity="1"></stop></radialGradient><radialGradient id="delapouite-dice-six-faces-two-gradient-1"><stop offset="0%" stop-color="#ffffff" stop-opacity="1"></stop><stop offset="100%" stop-color="#ffffff" stop-opacity="1"></stop></radialGradient></defs><rect fill="url(#delapouite-dice-six-faces-two-gradient-0)" height="512" width="512" rx="60" ry="60"></rect><g class="" transform="translate(0,0)" style=""><path d="M74.5 36A38.5 38.5 0 0 0 36 74.5v363A38.5 38.5 0 0 0 74.5 476h363a38.5 38.5 0 0 0 38.5-38.5v-363A38.5 38.5 0 0 0 437.5 36h-363zm316.97 36.03A50 50 0 0 1 440 122a50 50 0 0 1-100 0 50 50 0 0 1 51.47-49.97zm-268 268A50 50 0 0 1 172 390a50 50 0 0 1-100 0 50 50 0 0 1 51.47-49.97z" fill="url(#delapouite-dice-six-faces-two-gradient-1)"></path></g><g class="" transform="translate(256,256)" style=""><g><circle cx="128" cy="128" r="128" fill="#000" fill-opacity="1"></circle><circle stroke="#fff" stroke-opacity="1" fill="#000" fill-opacity="1" stroke-width="18" cx="128" cy="128" r="101"></circle><path fill="#fff" fill-opacity="1" d="M128 55c-9.118 0-17.148 1.724-23.621 6.203-6.473 4.479-10.598 11.358-12.98 19.092-3.278 10.638-4.112 23.58-4.323 39.705H76v68h104v-68h-11.078c-.214-16.037-1.051-28.954-4.318-39.588-2.38-7.746-6.49-14.642-12.958-19.15C145.18 56.754 137.132 55 128 55zm0 18c6.868 0 10.821 1.264 13.354 3.03 2.532 1.764 4.423 4.395 6.042 9.667 2.212 7.2 3.07 18.826 3.4 34.303h-45.595c.33-15.57 1.188-27.224 3.4-34.404 1.618-5.248 3.493-7.842 6.02-9.59C117.148 74.257 121.118 73 128 73zm0 60.191c6.503 0 11.775 5.273 11.775 11.776a11.775 11.775 0 0 1-6.025 10.262l6.025 19.58h-23.55l6.023-19.573a11.776 11.776 0 0 1-6.023-10.27c0-6.502 5.272-11.774 11.775-11.775z"></path></g></g></svg>